<svg xmlns="http://www.w3.org/2000/svg" xml:space="preserve" viewBox="0 0 189 189" preserveAspectRatio="xMidYMid meet">
  <path d="M142.673 134.747 89.087 138.6v-5.027l53.586 1.174zM54.241 46.308l-3.853 53.587H55.4l-1.16-53.587z"/>
  <path d="M72.976 122.603h-4.067l-23.04 23.04-2.8.24.24-2.8 23.067-23.094v-3.973l.013-91.027 16.667-10.466 48.2 12.613 1.64 4.427-7.347 19.306-9.84 9.84v3.44l-44.133 44.147v9.107h9.04l44.16-44.147h3.506l9.827-9.827 19.306-7.346 4.44 1.64 12.6 48.213-10.466 16.667H72.976zm86.32 7.48 5.466 7.093 18.733-29.853-16.093-61.574-8.867-10.546 4.974-9.734-9.734 4.974-10.546-8.854L81.656 5.483l-29.84 18.733 7.08 5.467 6.2-3.894v82.72l-20.614 20.627 1.494-17.8-12.907-1.08-3.267 38.773-29.8 29.787 10.12 10.12 29.8-29.787 38.774-3.267-1.094-12.92-17.786 1.507 20.573-20.586h82.8l-3.894 6.2z"/>
  <path d="m124.69-.001 54.8 9.493 9.493 54.8V-.001H124.69z"/>
</svg>