<svg xmlns="http://www.w3.org/2000/svg" xml:space="preserve" viewBox="0 0 182 189" preserveAspectRatio="xMidYMid meet">
  <path d="m30.24 24.09-6.147 6.147L0-.003 30.24 24.09zm121.122 0 6.146 6.147 24.094-30.24-30.24 24.093zM30.24 160.79l-6.147-6.16L0 184.883l30.24-24.093zm121.122 0 6.146-6.16 24.094 30.253-30.24-24.093zm-6.321-105.604-13.746-5.547-3.72 67.88L90.8 145.84l-36.773-28.32-3.72-67.88-13.746 5.547 4 72.973 50.24 38.68 50.24-38.68 4-72.973z"/>
  <path d="M148.534 133.933 90.8 178.386l-57.733-44.453-5.8-84.386 22.853-9.214v-10.4h18.307L90.8 14.6l22.36 15.333h18.32v10.4l22.853 9.214-5.8 84.386zm-9.187-100.52V20.307H115.68L90.8 3.24 65.907 20.307H42.254v13.106l-23.84 9.6.666 9.827 5.88 85.44 65.84 50.693 65.84-50.693 5.867-85.44.68-9.827-23.84-9.6z"/>
  <path d="M109.599 37.508 94.772 25.614v63.133h-7.947V25.614L72 37.508H53.345l5.32 77.333L90.8 139.587l32.133-24.746 5.32-77.333H109.6z"/>
</svg>