<svg xmlns="http://www.w3.org/2000/svg" xml:space="preserve" viewBox="0 0 187 189" preserveAspectRatio="xMidYMid meet">
  <path d="m14.743 94.755 13.24-13.24-7.386-7.374-20.6 20.614 20.6 20.613 7.386-7.374-13.24-13.24zm157.69 0-13.24-13.24 7.387-7.374 20.6 20.614-20.6 20.613-7.387-7.374 13.24-13.24zM48.49 18.11h18.72V7.682H38.065v29.146h10.427V18.11zm90.196 0h-18.72V7.682h29.146v29.146h-10.426V18.11zM48.49 171.48h18.72v10.427H38.065V152.76h10.427v18.72zm90.196 0h-18.72v10.427h29.146V152.76h-10.426v18.72z"/>
  <path d="m182.551 129.192-75.026-43.32V.006H81.592v85.866l-76.96 44.44 12.96 22.453 76.973-44.44 75.026 43.32 12.96-22.453z"/>
  <path d="M65.363 77.135V61.27L19.11 34.575 6.163 57.03l47.013 27.146 12.187-7.04zm57.827 0 12.146 7.014 45.2-26.094-12.973-22.453L123.19 61.23v15.906zm-29.341 49.77-12.534 7.24v54.84h25.92V134.64l-13.386-7.734z"/>
</svg>