<svg xmlns="http://www.w3.org/2000/svg" xml:space="preserve" viewBox="0 0 189 187" preserveAspectRatio="xMidYMid meet">
  <path fill="currentColor" d="M172.881 59.09 5.321 148.21l10.76-20.374 167.56-89.12-10.76 20.374zM123.002 42.5l-26 13.693-2.52-56.2-2.653 58.92-52.906 27.88-2.574 4.84L-.01 93.46l34.48 1.72-6.346 11.96 21.266-11.2 8.987.44v-5.187l53.813-28.347L123.002 42.5zm29.609 52.78 36.36-1.814-34.48-1.733 6.347-11.947-21.267 11.2-8.986-.453v5.187l-53.813 28.346-10.814 20.36 26-13.706 2.52 56.213L97.132 128l52.906-27.867 2.573-4.853z"/>
</svg>