<svg xmlns="http://www.w3.org/2000/svg" xml:space="preserve" viewBox="0 0 185 189" preserveAspectRatio="xMidYMid meet">
  <path d="M49.718 53.466H22.45L9.905 40.906v-23.28l7.026-7.027-6.16-6.146-9.573 9.573v30.467l17.653 17.68h30.867v-8.707z"/>
  <path d="M32.953 19.133H15.526v18.186L26.82 48.612h18.186V31.186L32.953 19.133zm146.051 155.603h-1.92l-50.093-50.094-6.747-11.6-9.186-9.186-2.427 2.426-44.827-44.826V50.443l-9.56-9.574v23.334l48.24 48.24-2.253 2.253 9.173 9.173 11.427 6.92 50.093 50.093v2.067l6.04 6.027h2.08l6.133-6.134v-1.946l-6.173-6.16zM-.004 56.242v86.986l5.707-67.08 21.306 7.094-27.013-27zM30.27.002h86.986L50.176 5.71l7.093 21.307-27-27.014z"/>
</svg>